REM DIRINDEX 1\2\5,1\2\6,1\2\7,1\2\8,1\3\9,1\3\10,1\3\11,1\4\12,1\4\13,1\4\14,1\4\15,1\4\16
REM DIRNAME folder01,folder02,folder03,folder04,folder05,folder06,folder07,folder08,folder09,folder10,folder11,folder12,folder13,folder14,folder15,folder16
TITLE ""
FILE "1200_2_sec03_0764_0782.mp3" MP3
  TRACK 01 AUDIO
    TITLE "0:"
    INDEX 01 00:00:00
  TRACK 02 AUDIO
    TITLE "10:cjc034_01570"
    INDEX 01 00:00:17
  TRACK 03 AUDIO
    TITLE "0:"
    INDEX 01 00:02:73
  TRACK 04 AUDIO
    TITLE "9:cjc034_01571"
    INDEX 01 00:03:02
  TRACK 05 AUDIO
    TITLE "0:"
    INDEX 01 00:04:03
  TRACK 06 AUDIO
    TITLE "10:cjc034_01572"
    INDEX 01 00:04:64
  TRACK 07 AUDIO
    TITLE "0:"
    INDEX 01 00:06:00
  TRACK 08 AUDIO
    TITLE "9:cjc034_01573"
    INDEX 01 00:06:12
  TRACK 09 AUDIO
    TITLE "0:"
    INDEX 01 00:07:13
  TRACK 10 AUDIO
    TITLE "10:cjc034_01574"
    INDEX 01 00:07:72
  TRACK 11 AUDIO
    TITLE "0:"
    INDEX 01 00:09:00
  TRACK 12 AUDIO
    TITLE "9:cjc034_01575"
    INDEX 01 00:09:02
  TRACK 13 AUDIO
    TITLE "0:"
    INDEX 01 00:10:27
  TRACK 14 AUDIO
    TITLE "10:cjc034_01576"
    INDEX 01 00:11:11
  TRACK 15 AUDIO
    TITLE "0:"
    INDEX 01 00:12:07
  TRACK 16 AUDIO
    TITLE "9:cjc034_01577"
    INDEX 01 00:12:12
  TRACK 17 AUDIO
    TITLE "0:"
    INDEX 01 00:13:18
  TRACK 18 AUDIO
    TITLE "10:cjc034_01578"
    INDEX 01 00:14:02
  TRACK 19 AUDIO
    TITLE "0:"
    INDEX 01 00:14:66
  TRACK 20 AUDIO
    TITLE "9:cjc034_01579"
    INDEX 01 00:14:74
  TRACK 21 AUDIO
    TITLE "0:"
    INDEX 01 00:16:12
  TRACK 22 AUDIO
    TITLE "10:cjc034_01580"
    INDEX 01 00:16:71
  TRACK 23 AUDIO
    TITLE "0:"
    INDEX 01 00:17:72
  TRACK 24 AUDIO
    TITLE "9:cjc034_01581"
    INDEX 01 00:18:05
  TRACK 25 AUDIO
    TITLE "0:"
    INDEX 01 00:19:07
  TRACK 26 AUDIO
    TITLE "10:cjc034_01582"
    INDEX 01 00:19:62
  TRACK 27 AUDIO
    TITLE "0:"
    INDEX 01 00:20:51
  TRACK 28 AUDIO
    TITLE "9:cjc034_01583"
    INDEX 01 00:20:57
  TRACK 29 AUDIO
    TITLE "0:"
    INDEX 01 00:21:74
  TRACK 30 AUDIO
    TITLE "10:cjc034_01584"
    INDEX 01 00:22:52
  TRACK 31 AUDIO
    TITLE "0:"
    INDEX 01 00:23:69
  TRACK 32 AUDIO
    TITLE "9:cjc034_01585"
    INDEX 01 00:23:73
  TRACK 33 AUDIO
    TITLE "0:"
    INDEX 01 00:25:01
  TRACK 34 AUDIO
    TITLE "10:cjc034_01586"
    INDEX 01 00:25:58
  TRACK 35 AUDIO
    TITLE "0:"
    INDEX 01 00:27:69
  TRACK 36 AUDIO
    TITLE "9:cjc034_01587"
    INDEX 01 00:28:02
  TRACK 37 AUDIO
    TITLE "0:"
    INDEX 01 00:28:72
  TRACK 38 AUDIO
    TITLE "10:cjc034_01588"
    INDEX 01 00:29:56
  TRACK 39 AUDIO
    TITLE "0:"
    INDEX 01 00:30:54
  TRACK 40 AUDIO
    TITLE "9:cjc034_01589"
    INDEX 01 00:30:61
  TRACK 41 AUDIO
    TITLE "0:"
    INDEX 01 00:32:00
  TRACK 42 AUDIO
    TITLE "11:cjc034_01590"
    INDEX 01 00:33:46
  TRACK 43 AUDIO
    TITLE "0:"
    INDEX 01 00:36:58
  TRACK 44 AUDIO
    TITLE "10:cjc034_01591"
    INDEX 01 00:37:57
  TRACK 45 AUDIO
    TITLE "0:"
    INDEX 01 00:39:07
  TRACK 46 AUDIO
    TITLE "9:cjc034_01592"
    INDEX 01 00:39:11
  TRACK 47 AUDIO
    TITLE "0:"
    INDEX 01 00:40:26
  TRACK 48 AUDIO
    TITLE "10:cjc034_01593"
    INDEX 01 00:41:08
  TRACK 49 AUDIO
    TITLE "0:"
    INDEX 01 00:43:48
  TRACK 50 AUDIO
    TITLE "9:cjc034_01594"
    INDEX 01 00:43:56
  TRACK 51 AUDIO
    TITLE "0:"
    INDEX 01 00:45:04
  TRACK 52 AUDIO
    TITLE "10:cjc034_01595"
    INDEX 01 00:45:59
  TRACK 53 AUDIO
    TITLE "0:"
    INDEX 01 00:46:60
  TRACK 54 AUDIO
    TITLE "9:cjc034_01596"
    INDEX 01 00:46:68
  TRACK 55 AUDIO
    TITLE "0:"
    INDEX 01 00:48:16
  TRACK 56 AUDIO
    TITLE "10:cjc034_01597"
    INDEX 01 00:48:73
  TRACK 57 AUDIO
    TITLE "0:"
    INDEX 01 00:50:15
  TRACK 58 AUDIO
    TITLE "9:cjc034_01598"
    INDEX 01 00:50:23
  TRACK 59 AUDIO
    TITLE "0:"
    INDEX 01 00:51:36
  TRACK 60 AUDIO
    TITLE "10:cjc034_01599"
    INDEX 01 00:52:20
  TRACK 61 AUDIO
    TITLE "0:"
    INDEX 01 00:53:39
  TRACK 62 AUDIO
    TITLE "9:cjc034_01600"
    INDEX 01 00:53:51
  TRACK 63 AUDIO
    TITLE "0:"
    INDEX 01 00:55:03
  TRACK 64 AUDIO
    TITLE "10:cjc034_01601"
    INDEX 01 00:55:57
  TRACK 65 AUDIO
    TITLE "0:"
    INDEX 01 00:58:05
  TRACK 66 AUDIO
    TITLE "9:cjc034_01602"
    INDEX 01 00:58:07
  TRACK 67 AUDIO
    TITLE "0:"
    INDEX 01 00:59:00
  TRACK 68 AUDIO
    TITLE "11:cjc034_01603"
    INDEX 01 01:00:51
  TRACK 69 AUDIO
    TITLE "0:"
    INDEX 01 01:06:08
  TRACK 70 AUDIO
    TITLE "10:cjc034_01604"
    INDEX 01 01:07:10
  TRACK 71 AUDIO
    TITLE "0:"
    INDEX 01 01:08:09
  TRACK 72 AUDIO
    TITLE "9:cjc034_01605"
    INDEX 01 01:08:11
  TRACK 73 AUDIO
    TITLE "0:"
    INDEX 01 01:09:24
  TRACK 74 AUDIO
    TITLE "10:cjc034_01606"
    INDEX 01 01:10:08
  TRACK 75 AUDIO
    TITLE "0:"
    INDEX 01 01:11:03
  TRACK 76 AUDIO
    TITLE "9:cjc034_01607"
    INDEX 01 01:11:09
  TRACK 77 AUDIO
    TITLE "0:"
    INDEX 01 01:12:15
  TRACK 78 AUDIO
    TITLE "10:cjc034_01608"
    INDEX 01 01:13:00
  TRACK 79 AUDIO
    TITLE "0:"
    INDEX 01 01:14:06
  TRACK 80 AUDIO
    TITLE "9:cjc034_01609"
    INDEX 01 01:14:08
  TRACK 81 AUDIO
    TITLE "0:"
    INDEX 01 01:15:44
